# xmcd CD database file
#
# Track frame offsets:
#	150
#	11686
#	24602
#	36470
#	50483
#	65506
#	79163
#	95094
#	106805
#	117204
#	131464
#	143334
#	156066
#
# Disc length: 2245 seconds
#
# Revision: 0
# Processed by: cddbd v1.5.2PL0 Copyright (c) Steve Scherf et al.
# Submitted via: CDex 1.51
#
DISCID=a708c30d
DTITLE=Joni Harms - After All
DYEAR=1900
DGENRE=Country
TTITLE0=Joni Harms - Weakness for Cowboys
TTITLE1=Joni Harms - More Than Your Eyes Can See
TTITLE2=Joni Harms - Every Cowgirl's Dream
TTITLE3=Joni Harms - After All
TTITLE4=Joni Harms - Keep On Dreamin'
TTITLE5=Joni Harms - West Texas Waltz
TTITLE6=Joni Harms - Ay Yi Yi Yi
TTITLE7=Joni Harms - Millie
TTITLE8=Joni Harms - A Cowboy Wedding
TTITLE9=Joni Harms - It'll Happen When It's Time
TTITLE10=Joni Harms - Cowboy Coffee
TTITLE11=Joni Harms - Sunday Go To Meeting Clothes
TTITLE12=Joni Harms - I Want To Sing For You
EXTD=
EXTT0=
EXTT1=
EXTT2=
EXTT3=
EXTT4=
EXTT5=
EXTT6=
EXTT7=
EXTT8=
EXTT9=
EXTT10=
EXTT11=
EXTT12=
PLAYORDER=
